<?xml version="1.0" encoding="utf-8"?>
<!-- Generator: Adobe Illustrator 16.0.4, SVG Export Plug-In . SVG Version: 6.00 Build 0)  -->
<!DOCTYPE svg PUBLIC "-//W3C//DTD SVG 1.1//EN" "http://www.w3.org/Graphics/SVG/1.1/DTD/svg11.dtd">
<svg version="1.1" id="Capa_1" xmlns="http://www.w3.org/2000/svg" xmlns:xlink="http://www.w3.org/1999/xlink" x="0px" y="0px"
	 width="24.21px" height="24.211px" viewBox="9.108 18 24.21 24.211" enable-background="new 9.108 18 24.21 24.211"
	 xml:space="preserve">
<g>
	<g>
		<path fill="#2E5D9C" d="M21.213,18c-6.675,0-12.105,5.43-12.105,12.105c0,6.675,5.431,12.105,12.105,12.105
			c6.675,0,12.105-5.431,12.105-12.105C33.318,23.429,27.888,18,21.213,18z M24.223,30.531h-1.969c0,3.146,0,7.02,0,7.02h-2.917
			c0,0,0-3.834,0-7.02h-1.388v-2.48h1.388v-1.604c0-1.15,0.546-2.945,2.945-2.945l2.163,0.008v2.409c0,0-1.314,0-1.569,0
			c-0.256,0-0.62,0.127-0.62,0.676v1.457h2.224L24.223,30.531z"/>
	</g>
</g>
</svg>
