<?xml version="1.0" encoding="utf-8"?>
<!-- Generator: Adobe Illustrator 16.0.4, SVG Export Plug-In . SVG Version: 6.00 Build 0)  -->
<!DOCTYPE svg PUBLIC "-//W3C//DTD SVG 1.1//EN" "http://www.w3.org/Graphics/SVG/1.1/DTD/svg11.dtd">
<svg version="1.1" id="Capa_1" xmlns="http://www.w3.org/2000/svg" xmlns:xlink="http://www.w3.org/1999/xlink" x="0px" y="0px"
	 width="325.96px" height="480.579px" viewBox="-139.591 -217 325.96 480.579"
	 enable-background="new -139.591 -217 325.96 480.579" xml:space="preserve">
<g>
	<g>
		<g>
			<path d="M30.549-217c21.149,0,38.284,17.139,38.284,38.283c0,21.145-17.135,38.284-38.284,38.284
				c-21.139,0-38.283-17.139-38.283-38.284C-7.734-199.861,9.41-217,30.549-217z"/>
			<path d="M185.753,173.53c-3.689-20.242-23.138-33.676-43.38-29.945l-50.423,9.254l6.328-48.525
				c0.989-7.492-1.324-15.035-6.328-20.682l-59.281-66.94l21.578-87.111l57.425,40.275c3.669,2.559,7.828,3.782,11.966,3.782
				c6.575,0,13.047-3.104,17.124-8.893c6.625-9.439,4.343-22.464-5.096-29.08l-61.604-43.197
				c-32.678-22.934-75.192-26.072-110.885-8.235l-82.459,41.203c-10.315,5.158-14.514,17.689-9.356,28.004
				c5.157,10.299,17.694,14.503,28.008,9.341l69.208-34.579l-20.335,82.036c-2.079,8.415-1.456,16.854,1.335,24.406l12.191,77.219
				l-32.331,70.738l-38.466,7.043c-20.243,3.699-33.656,23.127-29.947,43.379c1.794,9.725,7.35,18.348,15.493,23.965
				c8.134,5.615,18.163,7.766,27.887,5.971l251.411-46.051C176.049,213.2,189.463,193.774,185.753,173.53z M14.525,111.519
				L7.494,66.978l37.519,42.359l-6.981,53.369l-45.99,8.439l20.446-44.715C14.608,121.753,15.321,116.554,14.525,111.519z"/>
		</g>
	</g>
</g>
</svg>
