<?xml version="1.0" encoding="utf-8"?>
<!-- Generator: Adobe Illustrator 16.0.4, SVG Export Plug-In . SVG Version: 6.00 Build 0)  -->
<!DOCTYPE svg PUBLIC "-//W3C//DTD SVG 1.1//EN" "http://www.w3.org/Graphics/SVG/1.1/DTD/svg11.dtd">
<svg version="1.1" id="Capa_1" xmlns="http://www.w3.org/2000/svg" xmlns:xlink="http://www.w3.org/1999/xlink" x="0px" y="0px"
	 width="24.056px" height="24.056px" viewBox="10.67 10.306 24.056 24.056" enable-background="new 10.67 10.306 24.056 24.056"
	 xml:space="preserve">
<g>
	<path fill="#C1382E" d="M22.697,10.306c-6.643,0-12.027,5.384-12.027,12.027c0,6.642,5.385,12.029,12.027,12.029
		s12.028-5.387,12.028-12.029C34.726,15.69,29.34,10.306,22.697,10.306z M23.864,26.377c-1.093-0.085-1.552-0.626-2.408-1.147
		c-0.471,2.472-1.047,4.841-2.751,6.078c-0.527-3.734,0.772-6.54,1.376-9.517c-1.029-1.731,0.124-5.216,2.293-4.357
		c2.669,1.056-2.311,6.437,1.032,7.109c3.49,0.702,4.916-6.058,2.751-8.255c-3.128-3.174-9.105-0.072-8.37,4.471
		c0.179,1.111,1.327,1.448,0.458,2.981c-2.001-0.443-2.599-2.022-2.522-4.128c0.124-3.445,3.095-5.857,6.077-6.192
		c3.769-0.421,7.308,1.385,7.796,4.93C30.147,22.354,27.896,26.689,23.864,26.377z"/>
</g>
</svg>
