<?xml version="1.0" encoding="utf-8"?>
<!-- Generator: Adobe Illustrator 16.0.4, SVG Export Plug-In . SVG Version: 6.00 Build 0)  -->
<!DOCTYPE svg PUBLIC "-//W3C//DTD SVG 1.1//EN" "http://www.w3.org/Graphics/SVG/1.1/DTD/svg11.dtd">
<svg version="1.1" id="Capa_1" xmlns="http://www.w3.org/2000/svg" xmlns:xlink="http://www.w3.org/1999/xlink" x="0px" y="0px"
	 width="49.334px" height="49.334px" viewBox="233.047 157.559 49.334 49.334"
	 enable-background="new 233.047 157.559 49.334 49.334" xml:space="preserve">
<g>
	<path fill="#C1382E" d="M257.713,157.559c-13.623,0-24.666,11.044-24.666,24.667s11.043,24.667,24.666,24.667
		s24.668-11.044,24.668-24.667S271.336,157.559,257.713,157.559z M260.106,190.519c-2.242-0.175-3.182-1.284-4.939-2.353
		c-0.965,5.068-2.146,9.926-5.643,12.464c-1.08-7.658,1.584-13.411,2.822-19.518c-2.111-3.551,0.254-10.697,4.703-8.936
		c5.473,2.165-4.74,13.201,2.117,14.58c7.158,1.438,10.082-12.423,5.643-16.931c-6.416-6.509-18.674-0.148-17.166,9.17
		c0.367,2.28,2.721,2.97,0.939,6.114c-4.105-0.91-5.33-4.148-5.172-8.465c0.254-7.067,6.348-12.014,12.463-12.699
		c7.73-0.865,14.988,2.839,15.99,10.111C272.991,182.267,268.374,191.159,260.106,190.519z"/>
</g>
</svg>
