<?xml version="1.0" encoding="utf-8"?>
<!-- Generator: Adobe Illustrator 16.0.4, SVG Export Plug-In . SVG Version: 6.00 Build 0)  -->
<!DOCTYPE svg PUBLIC "-//W3C//DTD SVG 1.1//EN" "http://www.w3.org/Graphics/SVG/1.1/DTD/svg11.dtd">
<svg version="1.1" id="Layer_1" xmlns="http://www.w3.org/2000/svg" xmlns:xlink="http://www.w3.org/1999/xlink" x="0px" y="0px"
	 width="99.557px" height="93.86px" viewBox="0 0 99.557 93.86" enable-background="new 0 0 99.557 93.86" xml:space="preserve">
<g>
	<circle fill="#680087" cx="26.384" cy="32.189" r="8.098"/>
	<path fill="#680087" d="M54.857,71.635c0,0-19.853,33.437,7.314,18.286c0,0,34.482-32.392,37.094-41.796
		c2.612-9.404-13.061-9.404-18.808-3.657c0,0-5.747-12.539-37.094-24.555c0,0-24.556-27.69-43.364-17.763
		c16.196,7.314,33.959,24.555,33.959,24.555s10.449,15.151,14.628,15.673c4.18,0.522-27.69-0.522-18.286,15.151
		C30.302,57.528,15.151,82.084,54.857,71.635z"/>
</g>
</svg>
