<?xml version="1.0" encoding="utf-8"?>
<!-- Generator: Adobe Illustrator 16.0.4, SVG Export Plug-In . SVG Version: 6.00 Build 0)  -->
<!DOCTYPE svg PUBLIC "-//W3C//DTD SVG 1.1//EN" "http://www.w3.org/Graphics/SVG/1.1/DTD/svg11.dtd">
<svg version="1.1" id="Capa_1" xmlns="http://www.w3.org/2000/svg" xmlns:xlink="http://www.w3.org/1999/xlink" x="0px" y="0px"
	 width="24.211px" height="24.21px" viewBox="12 12.719 24.211 24.21" enable-background="new 12 12.719 24.211 24.21"
	 xml:space="preserve">
<g>
	<g>
		<path fill="#3774C7" d="M24.105,12.719C17.43,12.719,12,18.149,12,24.825c0,6.674,5.431,12.105,12.105,12.105
			c6.675,0,12.105-5.431,12.105-12.105C36.211,18.149,30.781,12.719,24.105,12.719z M29.506,22.054
			c0.006,0.12,0.008,0.241,0.008,0.362c0,3.682-2.802,7.926-7.928,7.926c-1.573,0-3.038-0.459-4.271-1.25
			c0.218,0.025,0.439,0.039,0.665,0.039c1.306,0,2.506-0.446,3.46-1.193c-1.219-0.022-2.249-0.828-2.603-1.936
			c0.169,0.032,0.345,0.051,0.524,0.051c0.254,0,0.5-0.033,0.734-0.097c-1.275-0.255-2.235-1.382-2.235-2.732
			c0-0.012,0-0.024,0-0.035c0.375,0.209,0.804,0.334,1.261,0.349c-0.747-0.499-1.239-1.353-1.239-2.319
			c0-0.511,0.137-0.989,0.376-1.401c1.374,1.686,3.428,2.794,5.743,2.913c-0.047-0.205-0.071-0.417-0.071-0.636
			c0-1.538,1.247-2.787,2.785-2.787c0.802,0,1.525,0.339,2.034,0.881c0.636-0.125,1.229-0.356,1.771-0.677
			c-0.21,0.651-0.65,1.197-1.229,1.542c0.564-0.067,1.104-0.215,1.602-0.438C30.523,21.172,30.051,21.663,29.506,22.054z"/>
	</g>
</g>
</svg>
